<svg width="20" height="20" viewBox="0 0 20 20" fill="none" xmlns="http://www.w3.org/2000/svg">
<path d="M13.318 17.578H4.05703C3.56136 17.5775 3.08614 17.3804 2.73564 17.0299C2.38515 16.6794 2.18802 16.2042 2.1875 15.7085V10.1815C2.18802 9.68587 2.38515 9.21065 2.73564 8.86016C3.08614 8.50966 3.56136 8.31253 4.05703 8.31201H13.318C13.8136 8.31253 14.2889 8.50966 14.6394 8.86016C14.9898 9.21065 15.187 9.68587 15.1875 10.1815V15.7085C15.187 16.2042 14.9898 16.6794 14.6394 17.0299C14.2889 17.3804 13.8136 17.5775 13.318 17.578ZM4.05703 9.48389C3.87206 9.48409 3.69473 9.55766 3.56394 9.68845C3.43315 9.81925 3.35958 9.99658 3.35938 10.1815V15.7085C3.35958 15.8935 3.43315 16.0708 3.56394 16.2016C3.69473 16.3324 3.87206 16.4059 4.05703 16.4062H13.318C13.5029 16.4059 13.6803 16.3324 13.8111 16.2016C13.9418 16.0708 14.0154 15.8935 14.0156 15.7085V10.1815C14.0154 9.99658 13.9418 9.81925 13.8111 9.68845C13.6803 9.55766 13.5029 9.48409 13.318 9.48389H4.05703Z" fill="#FFBB38"/>
<path d="M15.9437 14.4227H14.6015C14.4461 14.4227 14.2971 14.3609 14.1872 14.251C14.0773 14.1412 14.0156 13.9921 14.0156 13.8367C14.0156 13.6813 14.0773 13.5323 14.1872 13.4224C14.2971 13.3125 14.4461 13.2508 14.6015 13.2508H15.9437C16.1285 13.2504 16.3057 13.1767 16.4363 13.0459C16.5669 12.9152 16.6404 12.738 16.6406 12.5531V7.02617C16.6405 6.84127 16.5671 6.66396 16.4364 6.53311C16.3058 6.40225 16.1286 6.32854 15.9437 6.32812H6.68276C6.4978 6.32833 6.32047 6.4019 6.18967 6.53269C6.05888 6.66348 5.98531 6.84081 5.98511 7.02578V8.89766C5.98511 9.05306 5.92337 9.20209 5.81349 9.31198C5.70361 9.42186 5.55457 9.48359 5.39917 9.48359C5.24377 9.48359 5.09473 9.42186 4.98485 9.31198C4.87496 9.20209 4.81323 9.05306 4.81323 8.89766V7.02617C4.81365 6.53043 5.01073 6.05511 5.36124 5.70453C5.71174 5.35395 6.18702 5.15677 6.68276 5.15625H15.9437C16.4393 5.15697 16.9144 5.35425 17.2647 5.70481C17.6151 6.05536 17.812 6.53057 17.8124 7.02617V12.5531C17.8119 13.0487 17.6149 13.5238 17.2646 13.8742C16.9143 14.2247 16.4392 14.4219 15.9437 14.4227Z" fill="#FFBB38"/>
<path d="M14.6016 13.3903H2.77344C2.61804 13.3903 2.469 13.3286 2.35912 13.2187C2.24923 13.1088 2.1875 12.9598 2.1875 12.8044V10.8364C2.1875 10.681 2.24923 10.532 2.35912 10.4221C2.469 10.3122 2.61804 10.2505 2.77344 10.2505H14.6016C14.757 10.2505 14.906 10.3122 15.0159 10.4221C15.1258 10.532 15.1875 10.681 15.1875 10.8364V12.8044C15.1875 12.9598 15.1258 13.1088 15.0159 13.2187C14.906 13.3286 14.757 13.3903 14.6016 13.3903ZM3.35938 12.2185H14.0156V11.4224H3.35938V12.2185Z" fill="#FFBB38"/>
</svg>
