<svg width="20" height="20" viewBox="0 0 20 20" fill="none" xmlns="http://www.w3.org/2000/svg">
<path d="M10.0001 8.12785C10.3545 8.12785 10.6438 8.4165 10.6438 8.77085C10.6438 9.09419 10.9067 9.35626 11.23 9.35626C11.5526 9.35626 11.8154 9.09419 11.8154 8.77085C11.8154 7.97652 11.2979 7.30621 10.5855 7.06112V6.72892C10.5855 6.40631 10.3235 6.14277 10.0001 6.14277C9.67603 6.14277 9.41396 6.40631 9.41396 6.72892V7.06112C8.70158 7.30621 8.18556 7.97652 8.18556 8.77085C8.18556 9.77262 8.99908 10.5861 10.0001 10.5861C10.3545 10.5861 10.6438 10.8755 10.6438 11.2299C10.6438 11.585 10.3545 11.8736 10.0001 11.8736C9.64577 11.8736 9.35712 11.585 9.35712 11.2299C9.35712 10.9065 9.09431 10.6437 8.77097 10.6437C8.44689 10.6437 8.18556 10.9065 8.18556 11.2299C8.18556 12.0242 8.70158 12.6938 9.41396 12.9389V13.2711C9.41396 13.5951 9.67603 13.858 10.0001 13.858C10.3235 13.858 10.5855 13.5951 10.5855 13.2711V12.9389C11.2979 12.6938 11.8154 12.0242 11.8154 11.2299C11.8154 10.2288 11.0011 9.41458 10.0001 9.41458C9.64577 9.41458 9.35712 9.12593 9.35712 8.77085C9.35712 8.4165 9.64577 8.12785 10.0001 8.12785ZM14.9086 13.2534C15.1957 13.4047 15.5494 13.2947 15.7 13.0097C16.1872 12.0892 16.4441 11.0483 16.4441 9.99999C16.4441 6.44765 13.5525 3.55676 10.0001 3.55676C6.44704 3.55676 3.55615 6.44765 3.55615 9.99999C3.55615 13.5531 6.44704 16.444 10.0001 16.444C11.0329 16.444 12.059 16.1944 12.9678 15.7212C13.255 15.5729 13.3664 15.2178 13.2173 14.9313C13.0682 14.6456 12.7146 14.532 12.4267 14.6818C11.6744 15.0746 10.8572 15.2731 10.0001 15.2731C7.09298 15.2731 4.72697 12.9079 4.72697 9.99999C4.72697 7.0936 7.09298 4.72759 10.0001 4.72759C12.9072 4.72759 15.2733 7.0936 15.2733 9.99999C15.2733 10.8585 15.0621 11.7097 14.665 12.4612C14.5129 12.7477 14.6221 13.102 14.9086 13.2534ZM10.0001 1.21216C8.30294 1.21216 6.65522 1.69791 5.23561 2.61552C4.9632 2.79122 4.88569 3.15369 5.06139 3.42536C5.23782 3.69702 5.59882 3.7738 5.87196 3.59958C7.10037 2.80525 8.52957 2.38446 10.0001 2.38446C14.1999 2.38446 17.6156 5.80097 17.6156 9.99999C17.6156 14.1998 14.1999 17.6163 10.0001 17.6163C5.80035 17.6163 2.38384 14.1998 2.38384 9.99999C2.38384 8.54347 2.79651 7.12682 3.57829 5.90506C3.75251 5.63191 3.67279 5.26944 3.39964 5.09522C3.12724 4.921 2.76477 5.00073 2.59129 5.27314C1.68917 6.68388 1.21228 8.31979 1.21228 9.99999C1.21228 14.8464 5.15367 18.7878 10.0001 18.7878C14.8458 18.7878 18.788 14.8464 18.788 9.99999C18.788 5.15502 14.8458 1.21216 10.0001 1.21216Z" fill="#16DBCC"/>
</svg>
