<svg width="70" height="70" viewBox="0 0 70 70" fill="none" xmlns="http://www.w3.org/2000/svg">
<circle cx="35" cy="35" r="35" fill="#DCFAF8"/>
<g clip-path="url(#clip0_2_698)">
<path d="M49.9768 25.2237C49.8492 23.7736 48.0888 23.128 47.0585 24.1585L45.5867 25.6304C45.2576 25.9594 44.7173 25.9648 44.3822 25.6423C44.0346 25.3077 44.0526 24.7312 44.3943 24.3895L45.842 22.9418C46.8714 21.9124 46.2284 20.1514 44.7772 20.0236C40.8327 19.6768 37.7041 23.3452 38.7502 27.2351L20.832 45.1533C19.7224 46.2628 19.7223 48.0588 20.832 49.1685C21.939 50.2754 23.7401 50.2755 24.8471 49.1685L42.7607 31.2548C46.6041 32.2999 50.3273 29.2041 49.9768 25.2237Z" fill="#16DBCC"/>
<path d="M21.8745 26.8823C21.9165 26.9652 21.9713 27.0409 22.037 27.1066L24.5805 29.6499C24.9237 29.9932 25.4802 29.9931 25.8234 29.6499L27.1168 28.3565L29.587 30.8267L26.9461 33.4675C26.2618 34.153 26.2624 35.268 26.9467 35.9529L27.2239 36.2301L36.2375 27.217L35.9604 26.9399C35.2725 26.2532 34.1626 26.2522 33.4738 26.9399L30.8299 29.5837L28.3597 27.1135L29.6532 25.8201C29.9964 25.4769 29.9964 24.9204 29.6532 24.5772L27.1098 22.0337C27.0434 21.9673 26.9668 21.912 26.8829 21.8699L23.632 20.2367C23.2933 20.0666 22.8839 20.1326 22.6159 20.4006L20.3946 22.6218C20.1259 22.8906 20.0604 23.3015 20.2321 23.6405L21.8745 26.8823Z" fill="#16DBCC"/>
<path d="M41.3823 35.1198L35.126 41.3762L42.311 48.5629C44.0394 50.2914 46.8378 50.2919 48.5667 48.5629C50.2917 46.838 50.2917 44.0315 48.5667 42.3072L41.3823 35.1198ZM46.5307 46.5251C46.1897 46.8673 45.6318 46.8689 45.288 46.5251L40.2996 41.5367C39.9562 41.1933 39.9562 40.6368 40.2996 40.294C40.6429 39.9506 41.1995 39.9506 41.5423 40.294L46.5307 45.2824C46.874 45.6258 46.874 46.1818 46.5307 46.5251Z" fill="#16DBCC"/>
</g>
<defs>
<clipPath id="clip0_2_698">
<rect width="30" height="30" fill="white" transform="translate(20 20)"/>
</clipPath>
</defs>
</svg>
