<svg width="70" height="70" viewBox="0 0 70 70" fill="none" xmlns="http://www.w3.org/2000/svg">
<circle cx="35" cy="35" r="35" fill="#E7EDFF"/>
<g clip-path="url(#clip0_2_670)">
<path d="M34.7862 34.4511C36.7715 34.4511 38.4906 33.739 39.8953 32.3342C41.2999 30.9295 42.012 29.2109 42.012 27.2253C42.012 25.2405 41.2999 23.5216 39.895 22.1165C38.4902 20.712 36.7713 20 34.7862 20C32.8007 20 31.082 20.712 29.6773 22.1167C28.2727 23.5213 27.5604 25.2402 27.5604 27.2253C27.5604 29.2109 28.2727 30.9298 29.6776 32.3344C31.0824 33.7388 32.8013 34.4511 34.7862 34.4511Z" fill="#396AFF"/>
<path d="M47.4293 43.0685C47.3888 42.4839 47.3069 41.8462 47.1863 41.1729C47.0645 40.4945 46.9077 39.8531 46.72 39.267C46.5262 38.6611 46.2625 38.0628 45.9366 37.4895C45.5983 36.8944 45.2009 36.3762 44.7551 35.9498C44.2889 35.5037 43.718 35.1451 43.0579 34.8835C42.4001 34.6232 41.6711 34.4914 40.8913 34.4914C40.5851 34.4914 40.2889 34.617 39.717 34.9894C39.3649 35.219 38.9532 35.4845 38.4936 35.7781C38.1006 36.0285 37.5682 36.2631 36.9106 36.4755C36.2691 36.6831 35.6177 36.7884 34.9748 36.7884C34.3318 36.7884 33.6807 36.6831 33.0384 36.4755C32.3816 36.2634 31.8492 36.0288 31.4566 35.7784C31.0014 35.4875 30.5894 35.222 30.2321 34.9892C29.6608 34.6168 29.3644 34.4911 29.0582 34.4911C28.2782 34.4911 27.5494 34.6232 26.8918 34.8837C26.2322 35.1448 25.6612 35.5035 25.1945 35.95C24.7488 36.3767 24.3513 36.8946 24.0134 37.4895C23.6877 38.0628 23.4241 38.6609 23.23 39.2672C23.0425 39.8534 22.8857 40.4945 22.764 41.1729C22.6434 41.8453 22.5614 42.4832 22.5209 43.0691C22.4811 43.6432 22.4609 44.239 22.4609 44.8407C22.4609 46.4067 22.9588 47.6745 23.9404 48.6094C24.91 49.5321 26.1928 50.0001 27.7529 50.0001H42.198C43.7581 50.0001 45.0405 49.5323 46.0103 48.6094C46.9922 47.6751 47.49 46.4071 47.49 44.8405C47.4898 44.236 47.4694 43.6397 47.4293 43.0685Z" fill="#396AFF"/>
</g>
<defs>
<clipPath id="clip0_2_670">
<rect width="29.9999" height="30" fill="white" transform="translate(20 20)"/>
</clipPath>
</defs>
</svg>
