<svg width="182" height="175" viewBox="0 0 182 175" fill="none" xmlns="http://www.w3.org/2000/svg">
<path d="M181.376 88.1238C180.328 61.4648 169.659 37.2917 152.728 18.9636L83.5682 88.1238H181.376Z" fill="#FC7900"/>
<path d="M76.0817 87.0851L138.685 24.4822C122.238 9.28495 100.255 0 76.0817 0C51.922 0 29.9391 9.29839 13.4788 24.4822L76.0817 87.0851Z" fill="#343C6A"/>
<path d="M78.8508 94.3513V175C122.615 173.28 157.78 138.116 159.5 94.3513H78.8508Z" fill="#1814F3"/>
<path d="M73.1241 92.9148L20.2092 40C7.67252 53.5714 0 71.7113 0 91.6518C0 132.688 32.4637 166.133 73.1106 167.732V92.9148H73.1241Z" fill="#FA00FF"/>
<path d="M66.6911 27.1193C68.6513 27.1193 70.0533 26.0412 70.049 24.5497C70.0533 23.4631 69.3629 22.6875 68.0803 22.5256V22.4574C69.0561 22.2827 69.7294 21.5923 69.7251 20.6122C69.7294 19.2358 68.5234 18.1534 66.7166 18.1534C64.9268 18.1534 63.5803 19.2017 63.5547 20.7102H65.3232C65.3445 20.0455 65.9538 19.6151 66.7081 19.6151C67.4538 19.6151 67.9524 20.0668 67.9482 20.723C67.9524 21.4091 67.3686 21.8736 66.5291 21.8736H65.7152V23.2287H66.5291C67.5178 23.2287 68.1357 23.723 68.1314 24.4261C68.1357 25.1207 67.5391 25.598 66.6953 25.598C65.8814 25.598 65.272 25.1719 65.2379 24.5327H63.38C63.4098 26.0582 64.7734 27.1193 66.6911 27.1193ZM74.7972 27.1918C76.9918 27.1918 78.3171 25.5213 78.3214 22.6449C78.3256 19.7898 76.9833 18.1534 74.7972 18.1534C72.6069 18.1534 71.2773 19.7855 71.2731 22.6449C71.2646 25.5128 72.5984 27.1875 74.7972 27.1918ZM74.7972 25.6619C73.7958 25.6619 73.1481 24.6562 73.1523 22.6449C73.1566 20.6634 73.8001 19.6662 74.7972 19.6662C75.7901 19.6662 76.4379 20.6634 76.4379 22.6449C76.4421 24.6562 75.7944 25.6619 74.7972 25.6619ZM84.4141 25.3636C84.4183 26.4119 85.0874 27.3026 86.3359 27.3026C87.5717 27.3026 88.2621 26.4119 88.2578 25.3636V24.9034C88.2621 23.8466 87.5888 22.9645 86.3359 22.9645C85.1044 22.9645 84.4183 23.8551 84.4141 24.9034V25.3636ZM79.9354 20.3693C79.9396 21.4176 80.6087 22.2997 81.853 22.2997C83.093 22.2997 83.7834 21.4261 83.7791 20.3693V19.9091C83.7834 18.8523 83.1101 17.9702 81.853 17.9702C80.6342 17.9702 79.9396 18.8523 79.9354 19.9091V20.3693ZM80.353 27H81.4652L87.4652 18.2727H86.353L80.353 27ZM85.6541 24.9034C85.6584 24.4858 85.8246 24.0554 86.3359 24.0554C86.8729 24.0554 87.0135 24.4858 87.0092 24.9034V25.3636C87.0135 25.7812 86.8558 26.2031 86.3359 26.2031C85.8161 26.2031 85.6584 25.7685 85.6541 25.3636V24.9034ZM81.1839 19.9091C81.1882 19.5043 81.3459 19.0611 81.853 19.0611C82.3899 19.0611 82.5348 19.4915 82.5305 19.9091V20.3693C82.5348 20.7869 82.3729 21.2088 81.853 21.2088C81.3501 21.2088 81.1882 20.7869 81.1839 20.3693V19.9091ZM41.4563 40H46.3711V38.7322H42.994V36.9957H46.1048V35.728H42.994V33.995H46.3569V32.7273H41.4563V40ZM49.0637 36.8466C49.0673 36.1435 49.4863 35.7315 50.0971 35.7315C50.7044 35.7315 51.0701 36.1293 51.0666 36.7969V40H52.5794V36.527C52.5794 35.2557 51.8336 34.4744 50.6973 34.4744C49.8876 34.4744 49.3017 34.8722 49.0566 35.5078H48.9927V34.5455H47.551V40H49.0637V36.8466ZM56.6729 34.5455H55.6467V33.2386H54.1339V34.5455H53.3881V35.6818H54.1339V38.5227C54.1268 39.5916 54.8548 40.1207 55.9521 40.0746C56.3427 40.0604 56.6197 39.9822 56.7724 39.9325L56.5344 38.8068C56.4599 38.821 56.3001 38.8565 56.158 38.8565C55.8562 38.8565 55.6467 38.7429 55.6467 38.3239V35.6818H56.6729V34.5455ZM60.0856 40.1065C61.435 40.1065 62.3441 39.4496 62.5572 38.4375L61.158 38.3452C61.0053 38.7607 60.6147 38.9773 60.1104 38.9773C59.354 38.9773 58.8746 38.4766 58.8746 37.6634V37.6598H62.5891V37.2443C62.5891 35.3906 61.467 34.4744 60.0252 34.4744C58.4201 34.4744 57.3796 35.6143 57.3796 37.2976C57.3796 39.027 58.4059 40.1065 60.0856 40.1065ZM58.8746 36.7223C58.9066 36.1009 59.3789 35.6037 60.0501 35.6037C60.707 35.6037 61.1616 36.0724 61.1651 36.7223H58.8746ZM63.5763 40H65.0891V36.9141C65.0891 36.2429 65.5792 35.7812 66.2468 35.7812C66.4563 35.7812 66.744 35.8168 66.886 35.8629V34.5206C66.7511 34.4886 66.5629 34.4673 66.4102 34.4673C65.7994 34.4673 65.2987 34.8224 65.0998 35.4972H65.043V34.5455H63.5763V40ZM70.8429 34.5455H69.8166V33.2386H68.3038V34.5455H67.5581V35.6818H68.3038V38.5227C68.2967 39.5916 69.0247 40.1207 70.122 40.0746C70.5126 40.0604 70.7896 39.9822 70.9423 39.9325L70.7044 38.8068C70.6298 38.821 70.47 38.8565 70.3279 38.8565C70.0261 38.8565 69.8166 38.7429 69.8166 38.3239V35.6818H70.8429V34.5455ZM73.3837 40.103C74.1898 40.103 74.7118 39.7514 74.9782 39.2436H75.0208V40H76.4554V36.321C76.4554 35.0213 75.3546 34.4744 74.1401 34.4744C72.8333 34.4744 71.9739 35.0994 71.7644 36.0938L73.1635 36.2074C73.2665 35.8452 73.5897 35.5788 74.133 35.5788C74.6479 35.5788 74.9426 35.8381 74.9426 36.2855V36.3068C74.9426 36.6584 74.5698 36.7045 73.6216 36.7969C72.5421 36.8963 71.5726 37.2585 71.5726 38.4766C71.5726 39.5561 72.3432 40.103 73.3837 40.103ZM73.8169 39.0589C73.3517 39.0589 73.0179 38.8423 73.0179 38.4268C73.0179 38.0007 73.3695 37.7912 73.9022 37.7166C74.2324 37.6705 74.7722 37.5923 74.9533 37.4716V38.0504C74.9533 38.6222 74.481 39.0589 73.8169 39.0589ZM77.6291 40H79.1419V34.5455H77.6291V40ZM78.389 33.8423C78.84 33.8423 79.2093 33.4979 79.2093 33.0753C79.2093 32.6562 78.84 32.3118 78.389 32.3118C77.9416 32.3118 77.5723 32.6562 77.5723 33.0753C77.5723 33.4979 77.9416 33.8423 78.389 33.8423ZM81.8665 36.8466C81.87 36.1435 82.2891 35.7315 82.8999 35.7315C83.5071 35.7315 83.8729 36.1293 83.8693 36.7969V40H85.3821V36.527C85.3821 35.2557 84.6364 34.4744 83.5 34.4744C82.6903 34.4744 82.1044 34.8722 81.8594 35.5078H81.7955V34.5455H80.3537V40H81.8665V36.8466ZM86.5744 40H88.0872V36.7259C88.0872 36.1222 88.4707 35.7209 88.975 35.7209C89.4721 35.7209 89.8059 36.0618 89.8059 36.598V40H91.2725V36.669C91.2725 36.1044 91.5957 35.7209 92.1461 35.7209C92.6291 35.7209 92.9913 36.0227 92.9913 36.63V40H94.5005V36.3317C94.5005 35.1491 93.7974 34.4744 92.7818 34.4744C91.9828 34.4744 91.3613 34.8828 91.1376 35.5078H91.0808C90.9068 34.8757 90.3493 34.4744 89.6 34.4744C88.8649 34.4744 88.3074 34.8651 88.0801 35.5078H88.0162V34.5455H86.5744V40ZM98.1813 40.1065C99.5307 40.1065 100.44 39.4496 100.653 38.4375L99.2537 38.3452C99.101 38.7607 98.7104 38.9773 98.2061 38.9773C97.4498 38.9773 96.9703 38.4766 96.9703 37.6634V37.6598H100.685V37.2443C100.685 35.3906 99.5627 34.4744 98.1209 34.4744C96.5158 34.4744 95.4753 35.6143 95.4753 37.2976C95.4753 39.027 96.5016 40.1065 98.1813 40.1065ZM96.9703 36.7223C97.0023 36.1009 97.4746 35.6037 98.1458 35.6037C98.8027 35.6037 99.2573 36.0724 99.2608 36.7223H96.9703ZM103.185 36.8466C103.188 36.1435 103.607 35.7315 104.218 35.7315C104.825 35.7315 105.191 36.1293 105.188 36.7969V40H106.7V36.527C106.7 35.2557 105.955 34.4744 104.818 34.4744C104.009 34.4744 103.423 34.8722 103.178 35.5078H103.114V34.5455H101.672V40H103.185V36.8466ZM110.794 34.5455H109.768V33.2386H108.255V34.5455H107.509V35.6818H108.255V38.5227C108.248 39.5916 108.976 40.1207 110.073 40.0746C110.464 40.0604 110.741 39.9822 110.893 39.9325L110.656 38.8068C110.581 38.821 110.421 38.8565 110.279 38.8565C109.977 38.8565 109.768 38.7429 109.768 38.3239V35.6818H110.794V34.5455Z" fill="white"/>
<path d="M24.641 102H30.8626V100.491H27.1978V100.432L28.4719 99.1832C30.266 97.5469 30.7475 96.7287 30.7475 95.7358C30.7475 94.223 29.5117 93.1534 27.641 93.1534C25.8086 93.1534 24.5515 94.2486 24.5558 95.9616H26.3072C26.3029 95.1264 26.8313 94.6151 27.6282 94.6151C28.3952 94.6151 28.9663 95.0923 28.9663 95.8594C28.9663 96.554 28.5401 97.0312 27.7475 97.794L24.641 100.67V102ZM35.6214 102.192C37.8161 102.192 39.1413 100.521 39.1456 97.6449C39.1499 94.7898 37.8075 93.1534 35.6214 93.1534C33.4311 93.1534 32.1016 94.7855 32.0973 97.6449C32.0888 100.513 33.4226 102.188 35.6214 102.192ZM35.6214 100.662C34.62 100.662 33.9723 99.6562 33.9766 97.6449C33.9808 95.6634 34.6243 94.6662 35.6214 94.6662C36.6143 94.6662 37.2621 95.6634 37.2621 97.6449C37.2663 99.6562 36.6186 100.662 35.6214 100.662ZM45.2383 100.364C45.2425 101.412 45.9116 102.303 47.1602 102.303C48.396 102.303 49.0863 101.412 49.082 100.364V99.9034C49.0863 98.8466 48.413 97.9645 47.1602 97.9645C45.9286 97.9645 45.2425 98.8551 45.2383 99.9034V100.364ZM40.7596 95.3693C40.7638 96.4176 41.4329 97.2997 42.6772 97.2997C43.9173 97.2997 44.6076 96.4261 44.6033 95.3693V94.9091C44.6076 93.8523 43.9343 92.9702 42.6772 92.9702C41.4585 92.9702 40.7638 93.8523 40.7596 94.9091V95.3693ZM41.1772 102H42.2894L48.2894 93.2727H47.1772L41.1772 102ZM46.4783 99.9034C46.4826 99.4858 46.6488 99.0554 47.1602 99.0554C47.6971 99.0554 47.8377 99.4858 47.8335 99.9034V100.364C47.8377 100.781 47.68 101.203 47.1602 101.203C46.6403 101.203 46.4826 100.768 46.4783 100.364V99.9034ZM42.0082 94.9091C42.0124 94.5043 42.1701 94.0611 42.6772 94.0611C43.2141 94.0611 43.359 94.4915 43.3548 94.9091V95.3693C43.359 95.7869 43.1971 96.2088 42.6772 96.2088C42.1744 96.2088 42.0124 95.7869 42.0082 95.3693V94.9091ZM11.577 107.727H10.0393V115H11.577V107.727ZM14.3264 111.847C14.33 111.143 14.749 110.732 15.3598 110.732C15.9671 110.732 16.3328 111.129 16.3293 111.797V115H17.8421V111.527C17.8421 110.256 17.0963 109.474 15.96 109.474C15.1503 109.474 14.5644 109.872 14.3193 110.508H14.2554V109.545H12.8137V115H14.3264V111.847ZM23.9243 109.545H22.3227L21.1934 113.448H21.1366L20.0038 109.545H18.4058L20.3128 115H22.0173L23.9243 109.545ZM26.9987 115.107C28.3481 115.107 29.2572 114.45 29.4703 113.438L28.0711 113.345C27.9184 113.761 27.5278 113.977 27.0235 113.977C26.2671 113.977 25.7877 113.477 25.7877 112.663V112.66H29.5022V112.244C29.5022 110.391 28.3801 109.474 26.9383 109.474C25.3332 109.474 24.2927 110.614 24.2927 112.298C24.2927 114.027 25.319 115.107 26.9987 115.107ZM25.7877 111.722C25.8197 111.101 26.292 110.604 26.9632 110.604C27.6201 110.604 28.0747 111.072 28.0782 111.722H25.7877ZM35.0278 111.101C34.8928 110.096 34.0832 109.474 32.7053 109.474C31.3097 109.474 30.39 110.121 30.3936 111.172C30.39 111.989 30.9049 112.518 31.9703 112.731L32.9149 112.919C33.3907 113.015 33.6073 113.189 33.6144 113.462C33.6073 113.786 33.2558 114.016 32.7267 114.016C32.1869 114.016 31.8282 113.786 31.7359 113.342L30.248 113.42C30.39 114.464 31.2778 115.107 32.7231 115.107C34.1365 115.107 35.1485 114.386 35.1521 113.31C35.1485 112.521 34.6336 112.049 33.5754 111.832L32.5882 111.634C32.0803 111.523 31.8921 111.349 31.8957 111.087C31.8921 110.76 32.2615 110.547 32.7302 110.547C33.2558 110.547 33.5683 110.835 33.6428 111.186L35.0278 111.101ZM39.0059 109.545H37.9797V108.239H36.4669V109.545H35.7211V110.682H36.4669V113.523C36.4598 114.592 37.1878 115.121 38.2851 115.075C38.6757 115.06 38.9527 114.982 39.1054 114.933L38.8675 113.807C38.7929 113.821 38.6331 113.857 38.491 113.857C38.1892 113.857 37.9797 113.743 37.9797 113.324V110.682H39.0059V109.545ZM39.9914 115H41.5042V111.726C41.5042 111.122 41.8877 110.721 42.392 110.721C42.8891 110.721 43.2229 111.062 43.2229 111.598V115H44.6895V111.669C44.6895 111.104 45.0127 110.721 45.5631 110.721C46.0461 110.721 46.4083 111.023 46.4083 111.63V115H47.9175V111.332C47.9175 110.149 47.2144 109.474 46.1988 109.474C45.3998 109.474 44.7783 109.883 44.5546 110.508H44.4978C44.3238 109.876 43.7662 109.474 43.017 109.474C42.2819 109.474 41.7243 109.865 41.4971 110.508H41.4331V109.545H39.9914V115ZM51.5983 115.107C52.9477 115.107 53.8568 114.45 54.0699 113.438L52.6707 113.345C52.518 113.761 52.1274 113.977 51.6231 113.977C50.8667 113.977 50.3873 113.477 50.3873 112.663V112.66H54.1018V112.244C54.1018 110.391 52.9797 109.474 51.5379 109.474C49.9328 109.474 48.8923 110.614 48.8923 112.298C48.8923 114.027 49.9186 115.107 51.5983 115.107ZM50.3873 111.722C50.4193 111.101 50.8916 110.604 51.5628 110.604C52.2197 110.604 52.6743 111.072 52.6778 111.722H50.3873ZM56.6018 111.847C56.6054 111.143 57.0244 110.732 57.6352 110.732C58.2425 110.732 58.6082 111.129 58.6047 111.797V115H60.1175V111.527C60.1175 110.256 59.3717 109.474 58.2354 109.474C57.4257 109.474 56.8398 109.872 56.5947 110.508H56.5308V109.545H55.089V115H56.6018V111.847ZM64.211 109.545H63.1847V108.239H61.672V109.545H60.9262V110.682H61.672V113.523C61.6649 114.592 62.3928 115.121 63.4901 115.075C63.8808 115.06 64.1578 114.982 64.3105 114.933L64.0725 113.807C63.998 113.821 63.8382 113.857 63.6961 113.857C63.3943 113.857 63.1847 113.743 63.1847 113.324V110.682H64.211V109.545Z" fill="white"/>
<path d="M105.955 120.119C107.915 120.119 109.317 119.041 109.313 117.55C109.317 116.463 108.627 115.688 107.344 115.526V115.457C108.32 115.283 108.993 114.592 108.989 113.612C108.993 112.236 107.787 111.153 105.98 111.153C104.191 111.153 102.844 112.202 102.818 113.71H104.587C104.608 113.045 105.218 112.615 105.972 112.615C106.718 112.615 107.216 113.067 107.212 113.723C107.216 114.409 106.632 114.874 105.793 114.874H104.979V116.229H105.793C106.781 116.229 107.399 116.723 107.395 117.426C107.399 118.121 106.803 118.598 105.959 118.598C105.145 118.598 104.536 118.172 104.502 117.533H102.644C102.673 119.058 104.037 120.119 105.955 120.119ZM113.827 120.119C115.77 120.119 117.091 118.854 117.086 117.089C117.091 115.419 115.923 114.217 114.351 114.217C113.584 114.217 112.923 114.537 112.616 114.967H112.565L112.791 112.781H116.605V111.273H111.27L110.856 115.875L112.497 116.169C112.765 115.807 113.285 115.581 113.801 115.581C114.679 115.585 115.309 116.22 115.309 117.136C115.309 118.044 114.692 118.67 113.827 118.67C113.094 118.67 112.501 118.21 112.459 117.533H110.669C110.703 119.041 112.02 120.119 113.827 120.119ZM123.15 118.364C123.155 119.412 123.824 120.303 125.072 120.303C126.308 120.303 126.998 119.412 126.994 118.364V117.903C126.998 116.847 126.325 115.964 125.072 115.964C123.841 115.964 123.155 116.855 123.15 117.903V118.364ZM118.672 113.369C118.676 114.418 119.345 115.3 120.589 115.3C121.829 115.3 122.52 114.426 122.515 113.369V112.909C122.52 111.852 121.846 110.97 120.589 110.97C119.371 110.97 118.676 111.852 118.672 112.909V113.369ZM119.089 120H120.202L126.202 111.273H125.089L119.089 120ZM124.39 117.903C124.395 117.486 124.561 117.055 125.072 117.055C125.609 117.055 125.75 117.486 125.746 117.903V118.364C125.75 118.781 125.592 119.203 125.072 119.203C124.552 119.203 124.395 118.768 124.39 118.364V117.903ZM119.92 112.909C119.925 112.504 120.082 112.061 120.589 112.061C121.126 112.061 121.271 112.491 121.267 112.909V113.369C121.271 113.787 121.109 114.209 120.589 114.209C120.086 114.209 119.925 113.787 119.92 113.369V112.909ZM105.44 129.364C105.44 126.984 103.963 125.628 102.035 125.628C100.096 125.628 98.6293 126.984 98.6293 129.364C98.6293 131.732 100.096 133.099 102.035 133.099C103.963 133.099 105.44 131.743 105.44 129.364ZM103.881 129.364C103.881 130.905 103.15 131.739 102.035 131.739C100.916 131.739 100.188 130.905 100.188 129.364C100.188 127.822 100.916 126.988 102.035 126.988C103.15 126.988 103.881 127.822 103.881 129.364ZM109.452 127.545H108.426V126.239H106.913V127.545H106.167V128.682H106.913V131.523C106.906 132.592 107.634 133.121 108.731 133.075C109.122 133.06 109.399 132.982 109.552 132.933L109.314 131.807C109.239 131.821 109.079 131.857 108.937 131.857C108.635 131.857 108.426 131.743 108.426 131.324V128.682H109.452V127.545ZM112.068 129.847C112.071 129.143 112.501 128.732 113.119 128.732C113.733 128.732 114.095 129.126 114.092 129.797V133H115.605V129.527C115.608 128.249 114.855 127.474 113.719 127.474C112.892 127.474 112.338 127.865 112.089 128.508H112.025V125.727H110.555V133H112.068V129.847ZM119.281 133.107C120.63 133.107 121.539 132.45 121.752 131.438L120.353 131.345C120.201 131.761 119.81 131.977 119.306 131.977C118.549 131.977 118.07 131.477 118.07 130.663V130.66H121.784V130.244C121.784 128.391 120.662 127.474 119.221 127.474C117.615 127.474 116.575 128.614 116.575 130.298C116.575 132.027 117.601 133.107 119.281 133.107ZM118.07 129.722C118.102 129.101 118.574 128.604 119.245 128.604C119.902 128.604 120.357 129.072 120.36 129.722H118.07ZM122.772 133H124.284V129.914C124.284 129.243 124.775 128.781 125.442 128.781C125.652 128.781 125.939 128.817 126.081 128.863V127.521C125.946 127.489 125.758 127.467 125.605 127.467C124.995 127.467 124.494 127.822 124.295 128.497H124.238V127.545H122.772V133ZM131.402 129.101C131.267 128.096 130.457 127.474 129.079 127.474C127.684 127.474 126.764 128.121 126.768 129.172C126.764 129.989 127.279 130.518 128.344 130.731L129.289 130.919C129.765 131.015 129.981 131.189 129.988 131.462C129.981 131.786 129.63 132.016 129.101 132.016C128.561 132.016 128.202 131.786 128.11 131.342L126.622 131.42C126.764 132.464 127.652 133.107 129.097 133.107C130.51 133.107 131.523 132.386 131.526 131.31C131.523 130.521 131.008 130.049 129.949 129.832L128.962 129.634C128.454 129.523 128.266 129.349 128.27 129.087C128.266 128.76 128.635 128.547 129.104 128.547C129.63 128.547 129.942 128.835 130.017 129.186L131.402 129.101Z" fill="white"/>
<path d="M131.545 56.2727H129.811L127.65 57.6406V59.277L129.649 58.0241H129.7V65H131.545V56.2727ZM136.807 65.1193C138.75 65.1193 140.071 63.8537 140.067 62.0895C140.071 60.419 138.904 59.2173 137.331 59.2173C136.564 59.2173 135.904 59.5369 135.597 59.9673H135.546L135.771 57.7812H139.585V56.2727H134.25L133.837 60.875L135.477 61.169C135.746 60.8068 136.266 60.581 136.781 60.581C137.659 60.5852 138.29 61.2202 138.29 62.1364C138.29 63.044 137.672 63.6705 136.807 63.6705C136.074 63.6705 135.482 63.2102 135.439 62.5327H133.649C133.683 64.0412 135 65.1193 136.807 65.1193ZM146.131 63.3636C146.135 64.4119 146.804 65.3026 148.053 65.3026C149.289 65.3026 149.979 64.4119 149.975 63.3636V62.9034C149.979 61.8466 149.306 60.9645 148.053 60.9645C146.821 60.9645 146.135 61.8551 146.131 62.9034V63.3636ZM141.652 58.3693C141.656 59.4176 142.325 60.2997 143.57 60.2997C144.81 60.2997 145.5 59.4261 145.496 58.3693V57.9091C145.5 56.8523 144.827 55.9702 143.57 55.9702C142.351 55.9702 141.656 56.8523 141.652 57.9091V58.3693ZM142.07 65H143.182L149.182 56.2727H148.07L142.07 65ZM147.371 62.9034C147.375 62.4858 147.541 62.0554 148.053 62.0554C148.59 62.0554 148.73 62.4858 148.726 62.9034V63.3636C148.73 63.7812 148.573 64.2031 148.053 64.2031C147.533 64.2031 147.375 63.7685 147.371 63.3636V62.9034ZM142.901 57.9091C142.905 57.5043 143.063 57.0611 143.57 57.0611C144.107 57.0611 144.252 57.4915 144.247 57.9091V58.3693C144.252 58.7869 144.09 59.2088 143.57 59.2088C143.067 59.2088 142.905 58.7869 142.901 58.3693V57.9091ZM110.091 78H113.198C114.832 78 115.702 77.1477 115.702 75.9901C115.702 74.9141 114.931 74.2642 114.104 74.2251V74.1541C114.86 73.9837 115.418 73.4474 115.418 72.5916C115.418 71.5014 114.608 70.7273 113.003 70.7273H110.091V78ZM111.629 76.7429V74.8111H112.918C113.656 74.8111 114.115 75.2372 114.115 75.8374C114.115 76.3842 113.742 76.7429 112.882 76.7429H111.629ZM111.629 73.7706V71.9702H112.797C113.479 71.9702 113.866 72.3217 113.866 72.8473C113.866 73.4226 113.397 73.7706 112.769 73.7706H111.629ZM116.674 78H118.187V72.5455H116.674V78ZM117.434 71.8423C117.885 71.8423 118.254 71.4979 118.254 71.0753C118.254 70.6562 117.885 70.3118 117.434 70.3118C116.987 70.3118 116.617 70.6562 116.617 71.0753C116.617 71.4979 116.987 71.8423 117.434 71.8423ZM120.911 70.7273H119.399V78H120.911V70.7273ZM123.636 70.7273H122.123V78H123.636V70.7273ZM127.191 78H132.105V76.7322H128.728V74.9957H131.839V73.728H128.728V71.995H132.091V70.7273H127.191V78ZM134.55 72.5455H132.987L134.55 75.2727L132.93 78H134.493L135.551 76.1143L136.627 78H138.172L136.549 75.2727L138.129 72.5455H136.577L135.551 74.4524L134.55 72.5455ZM139.028 80.0455H140.54V77.1264H140.586C140.796 77.581 141.254 78.0888 142.135 78.0888C143.378 78.0888 144.347 77.1051 144.347 75.2798C144.347 73.4048 143.335 72.4744 142.138 72.4744C141.226 72.4744 140.789 73.0178 140.586 73.4616H140.519V72.5455H139.028V80.0455ZM140.508 75.2727C140.508 74.2997 140.92 73.6783 141.655 73.6783C142.405 73.6783 142.802 74.3281 142.802 75.2727C142.802 76.2244 142.398 76.8849 141.655 76.8849C140.927 76.8849 140.508 76.2457 140.508 75.2727ZM147.841 78.1065C149.191 78.1065 150.1 77.4496 150.313 76.4375L148.914 76.3452C148.761 76.7607 148.371 76.9773 147.866 76.9773C147.11 76.9773 146.631 76.4766 146.631 75.6634V75.6598H150.345V75.2443C150.345 73.3906 149.223 72.4744 147.781 72.4744C146.176 72.4744 145.135 73.6143 145.135 75.2976C145.135 77.027 146.162 78.1065 147.841 78.1065ZM146.631 74.7223C146.662 74.1009 147.135 73.6037 147.806 73.6037C148.463 73.6037 148.917 74.0724 148.921 74.7223H146.631ZM152.845 74.8466C152.849 74.1435 153.268 73.7315 153.878 73.7315C154.486 73.7315 154.851 74.1293 154.848 74.7969V78H156.361V74.527C156.361 73.2557 155.615 72.4744 154.479 72.4744C153.669 72.4744 153.083 72.8722 152.838 73.5078H152.774V72.5455H151.332V78H152.845V74.8466ZM162.091 74.1009C161.956 73.0959 161.147 72.4744 159.769 72.4744C158.373 72.4744 157.453 73.1207 157.457 74.1719C157.453 74.9886 157.968 75.5178 159.034 75.7308L159.978 75.919C160.454 76.0149 160.671 76.1889 160.678 76.4624C160.671 76.7855 160.319 77.0163 159.79 77.0163C159.25 77.0163 158.892 76.7855 158.799 76.3416L157.311 76.4197C157.453 77.4638 158.341 78.1065 159.787 78.1065C161.2 78.1065 162.212 77.3857 162.216 76.3097C162.212 75.5213 161.697 75.049 160.639 74.8324L159.652 74.6335C159.144 74.5234 158.956 74.3494 158.959 74.0866C158.956 73.7599 159.325 73.5469 159.794 73.5469C160.319 73.5469 160.632 73.8345 160.706 74.1861L162.091 74.1009ZM165.654 78.1065C167.003 78.1065 167.912 77.4496 168.126 76.4375L166.726 76.3452C166.574 76.7607 166.183 76.9773 165.679 76.9773C164.922 76.9773 164.443 76.4766 164.443 75.6634V75.6598H168.157V75.2443C168.157 73.3906 167.035 72.4744 165.594 72.4744C163.988 72.4744 162.948 73.6143 162.948 75.2976C162.948 77.027 163.974 78.1065 165.654 78.1065ZM164.443 74.7223C164.475 74.1009 164.947 73.6037 165.618 73.6037C166.275 73.6037 166.73 74.0724 166.733 74.7223H164.443Z" fill="white"/>
</svg>
