<svg width="25" height="25" viewBox="0 0 25 25" fill="none" xmlns="http://www.w3.org/2000/svg">
<circle cx="12.5" cy="12.5" r="12.5" fill="#1814F3"/>
<g clip-path="url(#clip0_2_1782)">
<path d="M18.6697 10.3309L17.5892 11.4114C17.4791 11.5215 17.301 11.5215 17.1908 11.4114L14.5892 8.80981C14.4791 8.69966 14.4791 8.52153 14.5892 8.41138L15.6697 7.33091C16.108 6.89263 16.8205 6.89263 17.2611 7.33091L18.6697 8.7395C19.1103 9.17778 19.1103 9.89028 18.6697 10.3309ZM13.6611 9.3395L7.50643 15.4942L7.00955 18.3418C6.94158 18.7262 7.27674 19.059 7.66111 18.9934L10.5088 18.4942L16.6635 12.3395C16.7736 12.2293 16.7736 12.0512 16.6635 11.9411L14.0619 9.3395C13.9494 9.22935 13.7713 9.22935 13.6611 9.3395ZM9.90877 14.9668C9.77986 14.8379 9.77986 14.6317 9.90877 14.5028L13.5181 10.8934C13.6471 10.7645 13.8533 10.7645 13.9822 10.8934C14.1111 11.0223 14.1111 11.2286 13.9822 11.3575L10.3728 14.9668C10.2439 15.0958 10.0377 15.0958 9.90877 14.9668ZM9.06268 16.9379H10.1877V17.7887L8.67596 18.0536L7.94705 17.3247L8.2119 15.8129H9.06268V16.9379Z" fill="white"/>
</g>
<defs>
<clipPath id="clip0_2_1782">
<rect width="12" height="12" fill="white" transform="translate(7 7)"/>
</clipPath>
</defs>
</svg>
